<svg width="244" height="75" viewBox="0 0 244 75" fill="none" xmlns="http://www.w3.org/2000/svg">
<path d="M24.4 59.8C19.3867 59.8 15.0933 58.9733 11.52 57.32C8 55.6133 5.25333 53.16 3.28 49.96C1.36 46.7067 0.32 42.7867 0.16 38.2C0.106667 35.9067 0.0800002 33.4533 0.0800002 30.84C0.0800002 28.2267 0.106667 25.7467 0.16 23.4C0.32 18.92 1.36 15.1067 3.28 11.96C5.25333 8.81333 8.02667 6.41333 11.6 4.76C15.2267 3.05333 19.4933 2.2 24.4 2.2C28.3467 2.2 31.8133 2.70666 34.8 3.72C37.7867 4.73333 40.2933 6.06666 42.32 7.72C44.3467 9.32 45.8933 11.08 46.96 13C48.0267 14.92 48.5867 16.76 48.64 18.52C48.64 19 48.48 19.4267 48.16 19.8C47.84 20.12 47.4133 20.28 46.88 20.28H36.96C36.4267 20.28 36 20.1733 35.68 19.96C35.4133 19.7467 35.1733 19.4267 34.96 19C34.5867 18.04 33.9733 17.08 33.12 16.12C32.32 15.1067 31.2267 14.2533 29.84 13.56C28.4533 12.8667 26.64 12.52 24.4 12.52C21.04 12.52 18.3733 13.4 16.4 15.16C14.48 16.92 13.44 19.8 13.28 23.8C13.12 28.3867 13.12 33.0533 13.28 37.8C13.44 41.96 14.5067 44.9467 16.48 46.76C18.5067 48.5733 21.2 49.48 24.56 49.48C26.7467 49.48 28.6933 49.1067 30.4 48.36C32.16 47.56 33.5467 46.3333 34.56 44.68C35.5733 43.0267 36.08 40.92 36.08 38.36V36.36H27.36C26.8267 36.36 26.3733 36.1733 26 35.8C25.6267 35.3733 25.44 34.8933 25.44 34.36V29.24C25.44 28.6533 25.6267 28.1733 26 27.8C26.3733 27.4267 26.8267 27.24 27.36 27.24H46.96C47.5467 27.24 48.0267 27.4267 48.4 27.8C48.7733 28.1733 48.96 28.6533 48.96 29.24V37.96C48.96 42.5467 47.9467 46.4667 45.92 49.72C43.9467 52.9733 41.0933 55.48 37.36 57.24C33.68 58.9467 29.36 59.8 24.4 59.8ZM76.8769 59.8C72.4502 59.8 68.7435 59.08 65.7569 57.64C62.7702 56.1467 60.4769 54.04 58.8769 51.32C57.3302 48.6 56.4769 45.4267 56.3169 41.8C56.2635 40.7333 56.2369 39.5333 56.2369 38.2C56.2369 36.8133 56.2635 35.6133 56.3169 34.6C56.4769 30.92 57.3835 27.7467 59.0369 25.08C60.6902 22.36 63.0102 20.28 65.9969 18.84C68.9835 17.3467 72.6102 16.6 76.8769 16.6C81.0902 16.6 84.6902 17.3467 87.6769 18.84C90.6635 20.28 92.9835 22.36 94.6369 25.08C96.2902 27.7467 97.1969 30.92 97.3569 34.6C97.4635 35.6133 97.5169 36.8133 97.5169 38.2C97.5169 39.5333 97.4635 40.7333 97.3569 41.8C97.1969 45.4267 96.3169 48.6 94.7169 51.32C93.1702 54.04 90.9035 56.1467 87.9169 57.64C84.9302 59.08 81.2502 59.8 76.8769 59.8ZM76.8769 51C79.4902 51 81.4635 50.2 82.7969 48.6C84.1302 46.9467 84.8502 44.5467 84.9569 41.4C85.0102 40.6 85.0369 39.5333 85.0369 38.2C85.0369 36.8667 85.0102 35.8 84.9569 35C84.8502 31.9067 84.1302 29.5333 82.7969 27.88C81.4635 26.2267 79.4902 25.4 76.8769 25.4C74.2635 25.4 72.2635 26.2267 70.8769 27.88C69.5435 29.5333 68.8235 31.9067 68.7169 35C68.6635 35.8 68.6369 36.8667 68.6369 38.2C68.6369 39.5333 68.6635 40.6 68.7169 41.4C68.8235 44.5467 69.5435 46.9467 70.8769 48.6C72.2635 50.2 74.2635 51 76.8769 51ZM113.896 59C113.31 59 112.83 58.8133 112.456 58.44C112.083 58.0667 111.896 57.5867 111.896 57V14.12H97.3363C96.8029 14.12 96.3496 13.9333 95.9763 13.56C95.6029 13.1867 95.4163 12.7333 95.4163 12.2V5C95.4163 4.41333 95.6029 3.93333 95.9763 3.56C96.3496 3.18666 96.8029 3 97.3363 3H139.256C139.843 3 140.323 3.18666 140.696 3.56C141.07 3.93333 141.256 4.41333 141.256 5V12.2C141.256 12.7333 141.07 13.1867 140.696 13.56C140.323 13.9333 139.843 14.12 139.256 14.12H124.776V57C124.776 57.5867 124.59 58.0667 124.216 58.44C123.843 58.8133 123.363 59 122.776 59H113.896ZM145.226 59C144.692 59 144.239 58.8133 143.866 58.44C143.492 58.0667 143.306 57.5867 143.306 57V19.4C143.306 18.8667 143.492 18.4133 143.866 18.04C144.239 17.6133 144.692 17.4 145.226 17.4H153.066C153.599 17.4 154.052 17.6133 154.426 18.04C154.852 18.4133 155.066 18.8667 155.066 19.4V22.6C156.399 20.9467 158.026 19.6667 159.946 18.76C161.919 17.8533 164.186 17.4 166.746 17.4H170.186C170.719 17.4 171.172 17.5867 171.546 17.96C171.919 18.3333 172.106 18.8133 172.106 19.4V26.28C172.106 26.8667 171.919 27.3467 171.546 27.72C171.172 28.0933 170.719 28.28 170.186 28.28H163.146C160.799 28.28 158.959 28.9467 157.626 30.28C156.292 31.56 155.626 33.4 155.626 35.8V57C155.626 57.5867 155.439 58.0667 155.066 58.44C154.692 58.8133 154.212 59 153.626 59H145.226ZM179.991 59C179.458 59 179.005 58.8133 178.631 58.44C178.258 58.0667 178.071 57.5867 178.071 57V19.4C178.071 18.8133 178.258 18.3333 178.631 17.96C179.005 17.5867 179.458 17.4 179.991 17.4H187.991C188.578 17.4 189.058 17.5867 189.431 17.96C189.805 18.3333 189.991 18.8133 189.991 19.4V57C189.991 57.5867 189.805 58.0667 189.431 58.44C189.058 58.8133 188.578 59 187.991 59H179.991ZM179.751 11C179.218 11 178.765 10.8133 178.391 10.44C178.018 10.0667 177.831 9.58667 177.831 9V2.6C177.831 2.01333 178.018 1.53333 178.391 1.16C178.765 0.733332 179.218 0.52 179.751 0.52H188.151C188.738 0.52 189.218 0.733332 189.591 1.16C190.018 1.53333 190.231 2.01333 190.231 2.6V9C190.231 9.58667 190.018 10.0667 189.591 10.44C189.218 10.8133 188.738 11 188.151 11H179.751ZM204.056 74.2C203.469 74.2 202.989 74.0133 202.616 73.64C202.242 73.2667 202.056 72.7867 202.056 72.2V19.4C202.056 18.8133 202.242 18.3333 202.616 17.96C202.989 17.5867 203.469 17.4 204.056 17.4H211.656C212.242 17.4 212.722 17.5867 213.096 17.96C213.469 18.3333 213.656 18.8133 213.656 19.4V22.44C214.936 20.7333 216.589 19.3467 218.616 18.28C220.642 17.16 223.176 16.6 226.216 16.6C228.989 16.6 231.389 17.0533 233.416 17.96C235.496 18.8133 237.229 20.0667 238.616 21.72C240.056 23.32 241.149 25.2667 241.896 27.56C242.696 29.8533 243.149 32.44 243.256 35.32C243.309 36.3333 243.336 37.2933 243.336 38.2C243.336 39.1067 243.309 40.0933 243.256 41.16C243.202 43.88 242.776 46.3867 241.976 48.68C241.229 50.9733 240.136 52.9467 238.696 54.6C237.256 56.2533 235.496 57.5333 233.416 58.44C231.389 59.3467 228.989 59.8 226.216 59.8C223.496 59.8 221.122 59.32 219.096 58.36C217.122 57.3467 215.496 55.9867 214.216 54.28V72.2C214.216 72.7867 214.029 73.2667 213.656 73.64C213.282 74.0133 212.829 74.2 212.296 74.2H204.056ZM222.616 50.2C224.642 50.2 226.242 49.7733 227.416 48.92C228.589 48.0133 229.416 46.84 229.896 45.4C230.429 43.96 230.749 42.3867 230.856 40.68C230.962 39.0267 230.962 37.3733 230.856 35.72C230.749 34.0133 230.429 32.44 229.896 31C229.416 29.56 228.589 28.4133 227.416 27.56C226.242 26.6533 224.642 26.2 222.616 26.2C220.642 26.2 219.042 26.6533 217.816 27.56C216.589 28.4667 215.709 29.6133 215.176 31C214.642 32.3867 214.322 33.88 214.216 35.48C214.162 36.44 214.136 37.4267 214.136 38.44C214.136 39.4533 214.162 40.4667 214.216 41.48C214.269 42.9733 214.589 44.3867 215.176 45.72C215.816 47 216.722 48.0667 217.896 48.92C219.122 49.7733 220.696 50.2 222.616 50.2Z" fill="white"/>
</svg>
